<svg xmlns="http://www.w3.org/2000/svg" width="32" height="32" viewBox="0 0 32 32">
  <rect x="3" y="3" width="26" height="26" rx="4" fill="#f7df1e"/>
  <path fill="#202020" d="M11.7 23.6c.5.9 1 1.7 2.2 1.7 1.1 0 1.8-.4 1.8-2V12.5h3.1v10.9c0 3.2-1.9 4.7-4.7 4.7-2.5 0-4-1.3-4.7-2.9l2.3-1.6zm9.3-.2c.8 1.3 1.8 2.2 3.6 2.2 1.5 0 2.4-.7 2.4-1.7 0-1.2-1-1.6-2.6-2.3l-.9-.4c-2.5-1.1-4.2-2.4-4.2-5.2 0-2.6 2-4.6 5.1-4.6 2.2 0 3.8.8 5 2.8l-2.4 1.5c-.6-1.1-1.3-1.5-2.6-1.5-1.2 0-1.9.7-1.9 1.6 0 1.1.7 1.5 2.3 2.2l.9.4c3 1.3 4.6 2.6 4.6 5.5 0 3.2-2.5 4.9-5.8 4.9-3.3 0-5.4-1.6-6.4-3.6l2.9-1.8z"/>
</svg>
