<svg xmlns="http://www.w3.org/2000/svg" width="32" height="32" viewBox="0 0 32 32">
  <rect x="3" y="3" width="26" height="26" rx="4" fill="#3178c6"/>
  <path fill="#ffffff" d="M8.5 12.5h14v2.8h-5.4v13h-3.2v-13H8.5v-2.8zm14.8 10.7c.8 1.3 1.8 2 3.2 2 1.3 0 2.1-.6 2.1-1.5 0-1-.8-1.4-2.4-2l-.8-.3c-2.5-1.1-4.1-2.4-4.1-5.1 0-2.5 1.9-4.4 4.9-4.4 2.1 0 3.7.7 4.8 2.7l-2.5 1.6c-.6-1-1.2-1.4-2.3-1.4s-1.8.7-1.8 1.5c0 1 .6 1.4 2.2 2.1l.8.3c2.9 1.2 4.5 2.5 4.5 5.3 0 3-2.4 4.7-5.5 4.7-3 0-5.1-1.5-6.1-3.5l3-1.8z"/>
</svg>
